<svg xmlns="http://www.w3.org/2000/svg" xmlns:xlink="http://www.w3.org/1999/xlink" viewBox="0 0 143.04 38.68"><defs><style>.cls-1{fill:#49c2f0;}.cls-2{fill:url(#Degradado_sin_nombre_73);}.cls-3{fill:#fff;}.cls-4{fill:#332382;}</style><linearGradient id="Degradado_sin_nombre_73" x1="0.62" y1="18.85" x2="38.53" y2="18.85" gradientTransform="translate(-0.59 0.49)" gradientUnits="userSpaceOnUse"><stop offset="0" stop-color="#2b2b82"/><stop offset="0.09" stop-color="#2d4091"/><stop offset="0.27" stop-color="#3265ad"/><stop offset="0.46" stop-color="#3582c3"/><stop offset="0.64" stop-color="#3896d3"/><stop offset="0.82" stop-color="#39a3dc"/><stop offset="1" stop-color="#3aa7df"/></linearGradient></defs><title>Recurso 1</title><g id="Capa_2" data-name="Capa 2"><g id="Capa_1-2" data-name="Capa 1"><path class="cls-1" d="M47.46,26.42,48,20l.37-8,.24-8c0-.35,0-1.27,0-2.76,1.36,0,2.65,0,3.86,0q1.35,0,3.57-.06c1.47,0,2.75,0,3.82,0a29.79,29.79,0,0,1,4,.25,10.17,10.17,0,0,1,3.25,1A8.82,8.82,0,0,1,69.54,4.1,9.7,9.7,0,0,1,71.2,6.48a11.59,11.59,0,0,1,1,2.91,15.36,15.36,0,0,1,.35,3.26,16.91,16.91,0,0,1-1.1,6.06,11.65,11.65,0,0,1-3.29,4.76,10.5,10.5,0,0,1-4.84,2.41,30.39,30.39,0,0,1-6,.54l-6.29,0Zm5.68-3.94c1,.05,2,.07,3,.07a27.54,27.54,0,0,0,3.12-.16,11.69,11.69,0,0,0,2.47-.53,6.41,6.41,0,0,0,2.08-1.27,7.52,7.52,0,0,0,1.71-2.1,9.94,9.94,0,0,0,1-2.66,12.31,12.31,0,0,0,.35-3A9.72,9.72,0,0,0,66,8.29a5.85,5.85,0,0,0-2.49-2.57,11.08,11.08,0,0,0-4.77-.78c-1.39,0-3,0-4.79.07Z"/><path class="cls-1" d="M94.16,9.14a5.45,5.45,0,0,0-2.67-1.51,13.7,13.7,0,0,0-3.73-.47A30,30,0,0,0,84,7.4a41.36,41.36,0,0,0-4.45.83c-.11.73-.18,1.27-.23,1.63s-.15,1-.32,1.87a20.33,20.33,0,0,1,7.44-1.61,6.58,6.58,0,0,1,1.66.19,2.49,2.49,0,0,1,1.22.69,1.73,1.73,0,0,1,.48,1.23,1.87,1.87,0,0,1-.16.72,2.3,2.3,0,0,1-.49.67,2.55,2.55,0,0,1-.79.53,8.25,8.25,0,0,1-1.21.42c-.51.14-1,.26-1.46.36a35.38,35.38,0,0,0-4.26,1.14A10.07,10.07,0,0,0,79,17.23a7.09,7.09,0,0,0-1.38,1.25,4.74,4.74,0,0,0-1.1,3,6,6,0,0,0,.71,2.76,4.31,4.31,0,0,0,2.22,2,10.16,10.16,0,0,0,3.83.62c.44,0,.92,0,1.44-.05s3.41-.25,4.52-.4h0c1,0,1.89,0,2.65,0s1.65,0,2.59,0q0-4.61.35-8.93c.19-2.88.29-4.67.29-5.37A4.22,4.22,0,0,0,94.16,9.14Zm-4.53,12.1q-.06,1.25-.15,2.37c-1,.17-3.14.18-3.53.24a9.19,9.19,0,0,1-1.25.09,5.18,5.18,0,0,1-1.61-.22A2.44,2.44,0,0,1,82,22.93a2.07,2.07,0,0,1-.45-1.34,2.26,2.26,0,0,1,.18-.9,2.35,2.35,0,0,1,.56-.79,4.22,4.22,0,0,1,1-.69,8.23,8.23,0,0,1,1.26-.54c.47-.16,1.1-.35,1.87-.57s1.33-.37,1.63-.48a6.67,6.67,0,0,0,.84-.34,10.54,10.54,0,0,0,1.07-.65Z"/><path class="cls-1" d="M101.68,26.42l.22-3.05.56-12h-2.3c0-.37.08-1,.12-1.81s.07-1.44.09-1.82h2.51V7a20.53,20.53,0,0,1,.17-3,4.26,4.26,0,0,1,.62-1.72A3.89,3.89,0,0,1,105,1.08a5.35,5.35,0,0,1,1.8-.67,11.16,11.16,0,0,1,2-.18,18,18,0,0,1,4.46.6c0,1.38.1,2.56.2,3.55a9.74,9.74,0,0,0-3.24-.63,3.86,3.86,0,0,0-1,.14,2.33,2.33,0,0,0-.79.38,2,2,0,0,0-.51.63,2.7,2.7,0,0,0-.27.91A8.81,8.81,0,0,0,107.49,7v.68h4.72c-.07.85-.15,2.06-.22,3.63h-4.44q-.36,7.36-.55,15.08c-1.12,0-2,0-2.68,0S102.76,26.4,101.68,26.42Z"/><path class="cls-1" d="M116.6,26.42l.23-3.05.55-12h-2.29c0-.37.07-1,.12-1.81s.07-1.44.08-1.82h2.52V7A20.81,20.81,0,0,1,118,4a4.26,4.26,0,0,1,.62-1.72,3.89,3.89,0,0,1,1.28-1.15,5.35,5.35,0,0,1,1.8-.67,11.24,11.24,0,0,1,2-.18,18,18,0,0,1,4.46.6c0,1.38.11,2.56.2,3.55a9.73,9.73,0,0,0-3.23-.63,3.89,3.89,0,0,0-1.06.14,2.33,2.33,0,0,0-.79.38,1.86,1.86,0,0,0-.5.63,2.7,2.7,0,0,0-.28.91A8.81,8.81,0,0,0,122.41,7v.68h4.71c-.07.85-.14,2.06-.22,3.63h-4.44q-.36,7.36-.55,15.08l-2.67,0C118.57,26.38,117.69,26.4,116.6,26.42Z"/><path class="cls-1" d="M142.39,22.55c-.15.68-.38,1.94-.7,3.78a22.63,22.63,0,0,1-2.45.44,16.41,16.41,0,0,1-1.66.09,10.68,10.68,0,0,1-2.45-.25,3.92,3.92,0,0,1-1.79-.92,3.25,3.25,0,0,1-1-1.54,6.45,6.45,0,0,1-.25-1.82c0-.16,0-.38,0-.65s.06-1.14.14-2.62l.43-7.7h-2.67c.07-.74.12-1.93.17-3.57H133c.07-.72.15-1.94.22-3.65l2.19-.43c.45-.08,1.34-.29,2.65-.61-.09,1.67-.14,3.23-.15,4.69h4.7c-.09,1.66-.13,2.85-.13,3.57h-4.72q-.39,7.53-.39,8.71a5.14,5.14,0,0,0,.25,1.78,1.69,1.69,0,0,0,.81.91,2.65,2.65,0,0,0,1.18.27,6.61,6.61,0,0,0,1-.07C140.94,22.91,141.54,22.77,142.39,22.55Z"/><rect class="cls-2" x="0.03" y="0.03" width="37.91" height="38.62" rx="6.2" transform="translate(-0.05 0.05) rotate(-0.14)"/><path class="cls-3" d="M30.05,29.06,23,17.66V11.22h.48V8.91l-6,0v2.35H18V13.6l2-.06v1h-2.1V15H20l0,1.18H18v.53h2.11l0,1.24H18v.53h2.13v.13l1,1.53H16.3v.53h5.13L23,23.16H18.86V21.73H13v1.65h.62v2.27h-.74v.56h.74v1.72H12.37v.54h1.28V30H12.19a1.42,1.42,0,0,0-1.41,1.29A1.45,1.45,0,0,0,12,33l17.51,0,.08,0a1.89,1.89,0,0,0,1.11-1.25A3.59,3.59,0,0,0,30.05,29.06ZM18.26,23.7h5.13l1.28,1.94-6.41,0Zm0,2.5H25l1,1.52.15.2-7.91,0Zm8.58,3.22a.41.41,0,0,1-.21.22l-8.37,0v-1.2l8,0V28C26.91,28.89,26.88,29.31,26.85,29.42Z"/><path class="cls-3" d="M6.94,21.88A15.94,15.94,0,0,1,34.24,10.7a15.92,15.92,0,1,0-24,20.81A15.82,15.82,0,0,1,6.94,21.88Z"/><path class="cls-4" d="M47.34,37.81v-5h.83V37h2.06v.85Z"/><path class="cls-4" d="M56.14,37.81h-.9l-.36-1.13H53.24l-.34,1.13H52l1.6-5h.88Zm-1.53-2L54.05,34l-.56,1.86Z"/><path class="cls-4" d="M58.18,32.8h1.65a2.61,2.61,0,0,1,1,.12,1.07,1.07,0,0,1,.46.44,1.36,1.36,0,0,1,.19.7,1.46,1.46,0,0,1-.16.66,1.16,1.16,0,0,1-.42.43,1.08,1.08,0,0,1,.57.44,1.36,1.36,0,0,1,.21.77,1.54,1.54,0,0,1-.27.92,1.07,1.07,0,0,1-.62.47,6.62,6.62,0,0,1-1.16.06h-1.4Zm.83.83v1.16h.55a4,4,0,0,0,.61,0,.53.53,0,0,0,.33-.17.62.62,0,0,0,.12-.4.57.57,0,0,0-.1-.36.37.37,0,0,0-.24-.17,3.91,3.91,0,0,0-.79,0Zm0,2V37h.77a2.66,2.66,0,0,0,.65-.05.44.44,0,0,0,.24-.21.67.67,0,0,0,.1-.39.73.73,0,0,0-.1-.41.54.54,0,0,0-.28-.21,2.66,2.66,0,0,0-.71-.06Z"/><path class="cls-4" d="M63.77,35.34A3.7,3.7,0,0,1,64,33.86a2,2,0,0,1,.7-.86,1.81,1.81,0,0,1,1-.29,1.78,1.78,0,0,1,1.44.68,2.92,2.92,0,0,1,.55,1.91,3,3,0,0,1-.58,2,1.89,1.89,0,0,1-2.81,0A3,3,0,0,1,63.77,35.34Zm.85,0A2.13,2.13,0,0,0,65,36.6a1,1,0,0,0,1.63,0,2.21,2.21,0,0,0,.32-1.32A2.1,2.1,0,0,0,66.59,34a1,1,0,0,0-1.65,0A2.16,2.16,0,0,0,64.62,35.3Z"/><path class="cls-4" d="M70,37.81v-5h1.74a2.46,2.46,0,0,1,1,.13,1.07,1.07,0,0,1,.47.47,1.76,1.76,0,0,1-.09,1.75,1.26,1.26,0,0,1-.8.45,2.52,2.52,0,0,1,.44.42,6.59,6.59,0,0,1,.47.81l.5,1h-1l-.6-1.09a8.18,8.18,0,0,0-.44-.74.68.68,0,0,0-.25-.21,1.28,1.28,0,0,0-.41-.05h-.17v2.09Zm.83-2.89h.61a3.24,3.24,0,0,0,.72-.05.48.48,0,0,0,.25-.2.76.76,0,0,0,.09-.4.75.75,0,0,0-.09-.39.57.57,0,0,0-.26-.2,4.15,4.15,0,0,0-.68,0h-.64Z"/><path class="cls-4" d="M79.47,37.81h-.89l-.36-1.13H76.57l-.34,1.13h-.88l1.6-5h.88Zm-1.52-2L77.38,34l-.55,1.86Z"/><path class="cls-4" d="M82,37.81V33.65H80.81V32.8h3.26v.85H82.85v4.16Z"/><path class="cls-4" d="M86,35.34a3.7,3.7,0,0,1,.26-1.48,2,2,0,0,1,.7-.86,1.81,1.81,0,0,1,1-.29,1.78,1.78,0,0,1,1.44.68,2.92,2.92,0,0,1,.55,1.91,3,3,0,0,1-.58,2,1.89,1.89,0,0,1-2.81,0A2.9,2.9,0,0,1,86,35.34Zm.85,0a2.13,2.13,0,0,0,.33,1.3,1,1,0,0,0,1.63,0,2.21,2.21,0,0,0,.32-1.32A2.1,2.1,0,0,0,88.77,34a1,1,0,0,0-1.65,0A2.16,2.16,0,0,0,86.8,35.3Z"/><path class="cls-4" d="M92.2,37.81v-5h1.74a2.46,2.46,0,0,1,1,.13,1.07,1.07,0,0,1,.47.47,1.76,1.76,0,0,1-.09,1.75,1.26,1.26,0,0,1-.81.45,2.28,2.28,0,0,1,.45.42,6.59,6.59,0,0,1,.47.81l.5,1h-1l-.6-1.09a8.18,8.18,0,0,0-.44-.74.68.68,0,0,0-.25-.21,1.28,1.28,0,0,0-.41-.05H93v2.09ZM93,34.92h.61a3.24,3.24,0,0,0,.72-.05.48.48,0,0,0,.25-.2.76.76,0,0,0,.09-.4.75.75,0,0,0-.09-.39.57.57,0,0,0-.26-.2,4.15,4.15,0,0,0-.68,0H93Z"/><path class="cls-4" d="M97.92,37.81v-5h.83v5Z"/><path class="cls-4" d="M101,35.34a3.54,3.54,0,0,1,.26-1.48,2,2,0,0,1,.69-.86,1.84,1.84,0,0,1,1-.29,1.78,1.78,0,0,1,1.44.68A2.92,2.92,0,0,1,105,35.3a3,3,0,0,1-.59,2,1.71,1.71,0,0,1-1.4.63,1.76,1.76,0,0,1-1.41-.62A3,3,0,0,1,101,35.34Zm.85,0a2.13,2.13,0,0,0,.33,1.3A1,1,0,0,0,103,37a1,1,0,0,0,.81-.43,2.13,2.13,0,0,0,.33-1.32A2.09,2.09,0,0,0,103.8,34a1,1,0,0,0-1.64,0A2.16,2.16,0,0,0,101.84,35.3Z"/><path class="cls-4" d="M113.07,36l.8.31a2.24,2.24,0,0,1-.62,1.23,1.68,1.68,0,0,1-2.38-.23,3,3,0,0,1-.58-1.93,3.12,3.12,0,0,1,.58-2,1.65,1.65,0,0,1,1.35-.63,1.55,1.55,0,0,1,1.16.48,2,2,0,0,1,.48,1l-.82.24a1,1,0,0,0-.31-.62.77.77,0,0,0-.55-.22.9.9,0,0,0-.75.39,2.34,2.34,0,0,0-.28,1.31,2.4,2.4,0,0,0,.28,1.35.84.84,0,0,0,.73.4.75.75,0,0,0,.56-.25A1.61,1.61,0,0,0,113.07,36Z"/><path class="cls-4" d="M116.21,37.81v-5H117V37h2.06v.85Z"/><path class="cls-4" d="M121.26,32.46l.38-1h.89l-.77,1Zm0,5.35v-5h.83v5Z"/><path class="cls-4" d="M124.52,37.81v-5h.81L127,36.15V32.8h.77v5H127l-1.66-3.27v3.27Z"/><path class="cls-4" d="M130.24,37.81v-5h.83v5Z"/><path class="cls-4" d="M136.1,36l.8.31a2.24,2.24,0,0,1-.62,1.23,1.56,1.56,0,0,1-1.08.39,1.6,1.6,0,0,1-1.3-.62,3,3,0,0,1-.57-1.93,3.18,3.18,0,0,1,.57-2,1.66,1.66,0,0,1,1.36-.63,1.53,1.53,0,0,1,1.15.48,2,2,0,0,1,.49,1l-.82.24a1.06,1.06,0,0,0-.32-.62.75.75,0,0,0-.55-.22.88.88,0,0,0-.74.39,2.33,2.33,0,0,0-.29,1.31,2.4,2.4,0,0,0,.28,1.35.85.85,0,0,0,.73.4.75.75,0,0,0,.57-.25A1.61,1.61,0,0,0,136.1,36Z"/><path class="cls-4" d="M139.06,35.34a3.54,3.54,0,0,1,.26-1.48A2,2,0,0,1,140,33a1.84,1.84,0,0,1,1-.29,1.78,1.78,0,0,1,1.44.68A2.92,2.92,0,0,1,143,35.3a3,3,0,0,1-.59,2,1.71,1.71,0,0,1-1.4.63,1.76,1.76,0,0,1-1.41-.62A3,3,0,0,1,139.06,35.34Zm.85,0a2.13,2.13,0,0,0,.33,1.3,1,1,0,0,0,.81.43,1,1,0,0,0,.81-.43,2.13,2.13,0,0,0,.33-1.32,2.09,2.09,0,0,0-.32-1.28,1,1,0,0,0-.82-.42,1,1,0,0,0-.82.42A2.16,2.16,0,0,0,139.91,35.3Z"/></g></g></svg>